# xmcd
#
# Track frame offsets:
#	150
#	13641
#	36773
#	53691
#	72717
#	90527
#	115191
#	128767
#	148857
#	169873
#
# Disc length: 2509 seconds
#
# Revision: 0
# Processed by: cddbd v1.5.2PL0 Copyright (c) Steve Scherf et al.
# Submitted via: EasyCDDAExtractor 10.2.0.1
#
DISCID=8909cb0a
DTITLE=Steve Reeves - Rain On Steaming Pavement
DYEAR=2005
DGENRE=Christian and Gospel
TTITLE0=He Is There
TTITLE1=Galilee
TTITLE2=Hold Them Close
TTITLE3=It's the One
TTITLE4=Passage
TTITLE5='tis Not This Ship
TTITLE6=The Best of Us
TTITLE7=Soft, Sure, Voice
TTITLE8=Reunion Day
TTITLE9=Guitar on Piano
EXTD=
EXTT0=
EXTT1=
EXTT2=
EXTT3=
EXTT4=
EXTT5=
EXTT6=
EXTT7=
EXTT8=
EXTT9=
PLAYORDER=
